<?xml version="1.0" encoding="UTF-8" standalone="no"?>
<!-- Created with Inkscape (http://www.inkscape.org/) -->

<svg
   xmlns:dc="http://purl.org/dc/elements/1.1/"
   xmlns:cc="http://creativecommons.org/ns#"
   xmlns:rdf="http://www.w3.org/1999/02/22-rdf-syntax-ns#"
   xmlns:svg="http://www.w3.org/2000/svg"
   xmlns="http://www.w3.org/2000/svg"
   xmlns:sodipodi="http://sodipodi.sourceforge.net/DTD/sodipodi-0.dtd"
   xmlns:inkscape="http://www.inkscape.org/namespaces/inkscape"
   width="210mm"
   height="297mm"
   viewBox="0 0 210 297"
   version="1.1"
   id="svg6029"
   inkscape:version="0.92.1 unknown"
   sodipodi:docname="fullstack_overview.svg"
   inkscape:export-filename="/home/mikem/a4_mcclendon_code/websites/FullStack/images/fullstack_overview.png"
   inkscape:export-xdpi="96"
   inkscape:export-ydpi="96">
  <defs
     id="defs6023">
    <inkscape:perspective
       sodipodi:type="inkscape:persp3d"
       inkscape:vp_x="0 : 148.5 : 1"
       inkscape:vp_y="0 : 1000 : 0"
       inkscape:vp_z="210 : 148.5 : 1"
       inkscape:persp3d-origin="105 : 99 : 1"
       id="perspective6031" />
  </defs>
  <sodipodi:namedview
     id="base"
     pagecolor="#ffffff"
     bordercolor="#666666"
     borderopacity="1.0"
     inkscape:pageopacity="0.0"
     inkscape:pageshadow="2"
     inkscape:zoom="0.35"
     inkscape:cx="-353.44064"
     inkscape:cy="550.3693"
     inkscape:document-units="mm"
     inkscape:current-layer="layer1"
     showgrid="false"
     inkscape:window-width="1366"
     inkscape:window-height="715"
     inkscape:window-x="0"
     inkscape:window-y="0"
     inkscape:window-maximized="1" />
  <metadata
     id="metadata6026">
    <rdf:RDF>
      <cc:Work
         rdf:about="">
        <dc:format>image/svg+xml</dc:format>
        <dc:type
           rdf:resource="http://purl.org/dc/dcmitype/StillImage" />
        <dc:title></dc:title>
      </cc:Work>
    </rdf:RDF>
  </metadata>
  <g
     inkscape:label="Layer 1"
     inkscape:groupmode="layer"
     id="layer1">
    <g
       sodipodi:type="inkscape:box3d"
       id="g6033"
       style="fill:#fd0000;fill-opacity:1;stroke:#00ff00;stroke-width:75.59055328;stroke-miterlimit:4;stroke-dasharray:none;stroke-opacity:1"
       inkscape:perspectiveID="#perspective6031"
       inkscape:corner0="2.2201791 : 0.33401232 : 0 : 1"
       inkscape:corner7="1.3954991 : 0.22195917 : 0.25 : 1">
      <path
         sodipodi:type="inkscape:box3dside"
         id="path6035"
         style="fill:#353564;fill-rule:evenodd;stroke:none;stroke-width:1px;stroke-linecap:butt;stroke-linejoin:round;stroke-opacity:1"
         inkscape:box3dsidetype="6"
         d="m 32.606883,60.147058 v 34.797178 l 12.779824,3.858286 V 66.512215 Z"
         points="32.606883,94.944236 45.386707,98.802522 45.386707,66.512215 32.606883,60.147058 " />
      <path
         sodipodi:type="inkscape:box3dside"
         id="path6045"
         style="fill:#e9e9ff;fill-rule:evenodd;stroke:none;stroke-width:1px;stroke-linecap:butt;stroke-linejoin:round;stroke-opacity:1"
         inkscape:box3dsidetype="11"
         d="M 45.386707,66.512215 59.535081,40.954206 v 42.356146 l -14.148374,15.49217 z"
         points="59.535081,40.954206 59.535081,83.310352 45.386707,98.802522 45.386707,66.512215 " />
      <path
         sodipodi:type="inkscape:box3dside"
         id="path6037"
         style="fill:#4d4d9f;fill-rule:evenodd;stroke:none;stroke-width:1px;stroke-linecap:butt;stroke-linejoin:round;stroke-opacity:1"
         inkscape:box3dsidetype="5"
         d="M 32.606883,60.147058 43.832203,29.73047 59.535081,40.954206 45.386707,66.512215 Z"
         points="43.832203,29.73047 59.535081,40.954206 45.386707,66.512215 32.606883,60.147058 " />
      <path
         sodipodi:type="inkscape:box3dside"
         id="path6043"
         style="fill:#afafde;fill-rule:evenodd;stroke:none;stroke-width:1px;stroke-linecap:butt;stroke-linejoin:round;stroke-opacity:1"
         inkscape:box3dsidetype="13"
         d="m 32.606883,94.944236 11.22532,-18.437231 15.702878,6.803347 -14.148374,15.49217 z"
         points="43.832203,76.507005 59.535081,83.310352 45.386707,98.802522 32.606883,94.944236 " />
      <path
         sodipodi:type="inkscape:box3dside"
         id="path6041"
         style="fill:#d7d7ff;fill-rule:evenodd;stroke:none;stroke-width:1px;stroke-linecap:butt;stroke-linejoin:round;stroke-opacity:1"
         inkscape:box3dsidetype="14"
         d="m 43.832203,29.73047 v 46.776535 l 15.702878,6.803347 V 40.954206 Z"
         points="43.832203,76.507005 59.535081,83.310352 59.535081,40.954206 43.832203,29.73047 " />
      <path
         sodipodi:type="inkscape:box3dside"
         id="path6039"
         style="fill:#8686bf;fill-rule:evenodd;stroke:none;stroke-width:1px;stroke-linecap:butt;stroke-linejoin:round;stroke-opacity:1"
         inkscape:box3dsidetype="3"
         d="M 32.606883,60.147058 43.832203,29.73047 v 46.776535 l -11.22532,18.437231 z"
         points="43.832203,29.73047 43.832203,76.507005 32.606883,94.944236 32.606883,60.147058 " />
    </g>
    <g
       sodipodi:type="inkscape:box3d"
       id="g6047"
       style="fill:#fd0000;fill-opacity:1;stroke:#00ff00;stroke-width:75.59055328;stroke-miterlimit:4;stroke-dasharray:none;stroke-opacity:1"
       inkscape:perspectiveID="#perspective6031"
       inkscape:corner0="1.2578267 : -0.029925191 : 0 : 1"
       inkscape:corner7="0.6233961 : -0.12649167 : 0.25 : 1">
      <path
         sodipodi:type="inkscape:box3dside"
         id="path6049"
         style="fill:#353564;fill-rule:evenodd;stroke:none;stroke-width:1px;stroke-linecap:butt;stroke-linejoin:round;stroke-opacity:1"
         inkscape:box3dsidetype="6"
         d="m 46.504899,183.67772 v 42.76966 l 16.298485,-7.77041 v -38.50604 z"
         points="46.504899,226.44738 62.803384,218.67697 62.803384,180.17093 46.504899,183.67772 " />
      <path
         sodipodi:type="inkscape:box3dside"
         id="path6057"
         style="fill:#afafde;fill-rule:evenodd;stroke:none;stroke-width:1px;stroke-linecap:butt;stroke-linejoin:round;stroke-opacity:1"
         inkscape:box3dsidetype="13"
         d="M 46.504899,226.44738 64.679225,256.90957 84.071918,242.44259 62.803384,218.67697 Z"
         points="64.679225,256.90957 84.071918,242.44259 62.803384,218.67697 46.504899,226.44738 " />
      <path
         sodipodi:type="inkscape:box3dside"
         id="path6059"
         style="fill:#e9e9ff;fill-rule:evenodd;stroke:none;stroke-width:1px;stroke-linecap:butt;stroke-linejoin:round;stroke-opacity:1"
         inkscape:box3dsidetype="11"
         d="m 62.803384,180.17093 21.268534,10.72544 v 51.54622 L 62.803384,218.67697 Z"
         points="84.071918,190.89637 84.071918,242.44259 62.803384,218.67697 62.803384,180.17093 " />
      <path
         sodipodi:type="inkscape:box3dside"
         id="path6051"
         style="fill:#4d4d9f;fill-rule:evenodd;stroke:none;stroke-width:1px;stroke-linecap:butt;stroke-linejoin:round;stroke-opacity:1"
         inkscape:box3dsidetype="5"
         d="m 46.504899,183.67772 18.174326,13.74761 19.392693,-6.52896 -21.268534,-10.72544 z"
         points="64.679225,197.42533 84.071918,190.89637 62.803384,180.17093 46.504899,183.67772 " />
      <path
         sodipodi:type="inkscape:box3dside"
         id="path6055"
         style="fill:#d7d7ff;fill-rule:evenodd;stroke:none;stroke-width:1px;stroke-linecap:butt;stroke-linejoin:round;stroke-opacity:1"
         inkscape:box3dsidetype="14"
         d="m 64.679225,197.42533 v 59.48424 l 19.392693,-14.46698 v -51.54622 z"
         points="64.679225,256.90957 84.071918,242.44259 84.071918,190.89637 64.679225,197.42533 " />
      <path
         sodipodi:type="inkscape:box3dside"
         id="path6053"
         style="fill:#8686bf;fill-rule:evenodd;stroke:none;stroke-width:1px;stroke-linecap:butt;stroke-linejoin:round;stroke-opacity:1"
         inkscape:box3dsidetype="3"
         d="m 46.504899,183.67772 18.174326,13.74761 v 59.48424 L 46.504899,226.44738 Z"
         points="64.679225,197.42533 64.679225,256.90957 46.504899,226.44738 46.504899,183.67772 " />
    </g>
    <text
       xml:space="preserve"
       style="font-style:normal;font-weight:normal;font-size:17.44992638px;line-height:125%;font-family:sans-serif;letter-spacing:0px;word-spacing:0px;fill:#000000;fill-opacity:1;stroke:none;stroke-width:0.43624812px;stroke-linecap:butt;stroke-linejoin:miter;stroke-opacity:1"
       x="25.1434"
       y="16.181057"
       id="text6063"
       transform="scale(0.67707874,1.4769331)"><tspan
         sodipodi:role="line"
         id="tspan6061"
         x="25.1434"
         y="16.181057"
         style="stroke-width:0.43624812px">Server - a remote computer</tspan></text>
    <text
       xml:space="preserve"
       style="font-style:normal;font-weight:normal;font-size:16.77882576px;line-height:125%;font-family:sans-serif;letter-spacing:0px;word-spacing:0px;fill:#000000;fill-opacity:1;stroke:none;stroke-width:0.41947064px;stroke-linecap:butt;stroke-linejoin:miter;stroke-opacity:1"
       x="13.559339"
       y="176.12933"
       id="text6067"
       transform="scale(0.63075529,1.5854009)"><tspan
         sodipodi:role="line"
         id="tspan6065"
         x="13.559339"
         y="176.12933"
         style="stroke-width:0.41947064px">Client - the computer in front of you</tspan></text>
    <path
       style="fill:#fd0000;fill-opacity:1;stroke:none;stroke-width:3;stroke-miterlimit:4;stroke-dasharray:none;stroke-opacity:1"
       id="path6069"
       d="m 54.888627,52.852007 c 0.829042,-1.215385 1.329036,-2.599558 2.118325,-3.839218 0.742879,-0.934979 1.475468,-1.879354 2.228273,-2.806544 0.723355,-0.88493 1.675813,-1.482915 2.601185,-2.122932 2.933359,-2.450988 6.216605,-4.039264 9.590519,-6.000059 0.513337,-0.274973 1.101773,-0.279649 1.649024,-0.42201 0.457313,-0.118965 0.890105,-0.310137 1.354396,-0.420516 1.087827,-0.20162 2.201572,-0.193291 3.304162,-0.210899 1.134102,-0.01222 2.268297,-0.0084 3.402441,-0.0067 1.323361,0.0108 2.646743,0.01262 3.970142,0.01021 1.070131,-0.01953 2.106882,0.29726 3.167234,0.420913 1.042374,0.04249 2.053471,0.111535 3.075911,0.314859 1.025157,0.08434 1.989204,0.369853 2.980883,0.613304 0.917583,0.376526 1.873882,0.592363 2.803356,0.931955 0.70966,0.526169 1.499833,0.737651 2.360104,0.844624 1.104818,0.09539 2.215468,0.08524 3.323428,0.09234 1.40622,2.64e-4 2.81242,-0.0024 4.21863,-0.0083 1.29735,-0.0016 2.59471,-0.0024 3.89207,-0.0053 0.57617,-0.0013 1.15236,-0.0021 1.72854,-0.003 0,0 -6.39882,4.649025 -6.39882,4.649025 v 0 c -0.57347,-7.94e-4 -1.14694,-0.0016 -1.72041,-0.0028 -1.29414,-0.0026 -2.58826,-0.0026 -3.88239,-2.65e-4 -1.406195,-0.0016 -2.812352,0.0043 -4.218538,0.0031 -1.145781,-0.0011 -2.299878,0.01349 -3.43402,-0.174001 C 92.128434,44.523371 91.340648,44.184591 90.561341,43.749631 89.653183,43.423562 88.71124,43.200862 87.800899,42.879668 86.833913,42.618411 85.856328,42.457899 84.866143,42.306946 83.850177,42.145788 82.8203,42.172715 81.8019,42.02504 c -1.021794,-0.15708 -2.034762,-0.417398 -3.077477,-0.354684 -1.329822,-0.0036 -2.659631,-0.0032 -3.989446,0.0024 -1.127408,-0.0024 -2.255009,-0.0079 -3.382224,0.01709 -1.078738,0.03449 -2.169522,0.06876 -3.211967,0.378505 -0.965843,0.292336 -1.979949,0.469847 -2.860993,0.983978 11.777612,-6.874211 6.235502,-3.957127 3.910944,-1.894856 -0.865413,0.705426 -1.900926,1.144029 -2.657682,1.990076 -0.860358,0.822288 -1.43347,1.89614 -2.298877,2.713728 -0.87327,1.185138 -1.426395,2.502506 -2.08177,3.812617 0,0 -7.263781,3.178149 -7.263781,3.178149 z"
       inkscape:connector-curvature="0" />
    <text
       xml:space="preserve"
       style="font-style:normal;font-weight:normal;font-size:10.58333302px;line-height:125%;font-family:sans-serif;letter-spacing:0px;word-spacing:0px;fill:#000000;fill-opacity:1;stroke:none;stroke-width:0.26458332px;stroke-linecap:butt;stroke-linejoin:miter;stroke-opacity:1"
       x="115.99496"
       y="43.093948"
       id="text6616"><tspan
         sodipodi:role="line"
         id="tspan6614"
         x="115.99496"
         y="43.093948"
         style="stroke-width:0.26458332px">MySQL database</tspan></text>
    <path
       style="fill:#fd0000;fill-opacity:1;stroke:none;stroke-width:3;stroke-miterlimit:4;stroke-dasharray:none;stroke-opacity:1"
       id="path6618"
       d="m 50.498692,74.943644 c 0.60488,-1.077484 0.970415,-2.257783 1.415685,-3.403804 0.345863,-1.021649 0.740889,-2.019086 1.258416,-2.965664 0.478274,-0.731692 1.01948,-1.430388 1.660311,-2.026478 2.625569,-1.836555 1.104974,-0.790626 7.599018,-4.432197 0.300477,-0.168495 0.702414,-0.1802 1.019773,-0.288015 0.298755,-0.101494 0.577181,-0.255966 0.872461,-0.36716 0.94665,-0.299667 1.944696,-0.332597 2.928932,-0.363164 1.061218,-0.02077 2.122737,-0.01352 3.184086,-0.01061 1.107165,-0.09928 2.16521,0.116824 3.247589,0.301146 1.094962,0.128514 2.189056,0.347718 3.234189,0.703149 1.050645,0.330192 2.132796,0.500988 3.198104,0.774284 1.17762,0.256771 2.283653,0.749502 3.446087,1.066636 1.212347,0.368269 2.35427,0.908095 3.515865,1.404282 1.100632,0.402391 2.189805,0.849537 3.237267,1.376823 0.965261,0.363405 1.85856,0.880496 2.861863,1.136549 0.965237,0.189238 1.953572,0.190259 2.933303,0.200388 0.687906,-0.0011 1.362773,0.0572 2.031913,-0.113356 0,0 -6.319129,4.725493 -6.319129,4.725493 v 0 c -0.698127,0.02408 -1.396362,0.01987 -2.094777,0.0056 -1.03142,-0.02952 -2.074601,-0.06743 -3.069201,-0.370835 -0.995792,-0.34857 -1.929826,-0.848193 -2.90272,-1.254228 -1.058863,-0.485386 -2.135511,-0.927976 -3.219429,-1.354278 -1.125429,-0.503102 -2.263333,-0.979498 -3.448225,-1.327234 -1.14777,-0.352777 -2.276192,-0.775997 -3.452492,-1.029108 -1.072653,-0.267525 -2.17025,-0.433641 -3.216352,-0.804132 -1.048541,-0.271563 -2.106009,-0.487672 -3.181736,-0.619927 -1.05396,-0.176498 -2.10399,-0.237598 -3.173579,-0.19381 -1.054833,-7.93e-4 -2.11055,-0.0069 -3.164306,0.0482 -0.952553,0.06927 -1.903653,0.184584 -2.789409,0.567627 -0.451972,0.175326 -0.924978,0.301593 -1.368126,0.498588 -0.15434,0.06861 -0.59753,0.314759 -0.451922,0.229167 7.824528,-4.599596 8.273077,-4.879846 5.885532,-3.41225 -0.757899,0.40004 -1.271288,1.089959 -1.767395,1.769653 -0.683504,0.806855 -1.028624,1.837722 -1.371037,2.825316 -0.455165,1.138936 -0.852149,2.29258 -1.305295,3.429889 0,0 -7.235264,3.273459 -7.235264,3.27346 z"
       inkscape:connector-curvature="0" />
    <text
       xml:space="preserve"
       style="font-style:normal;font-weight:normal;font-size:10.58333302px;line-height:125%;font-family:sans-serif;letter-spacing:0px;word-spacing:0px;fill:#000000;fill-opacity:1;stroke:none;stroke-width:0.26458332px;stroke-linecap:butt;stroke-linejoin:miter;stroke-opacity:1"
       x="99.958817"
       y="73.028137"
       id="text6622"><tspan
         sodipodi:role="line"
         id="tspan6620"
         x="99.958817"
         y="73.028137"
         style="stroke-width:0.26458332px">PHP prog lang</tspan></text>
    <text
       xml:space="preserve"
       style="font-style:normal;font-weight:normal;font-size:10.58333302px;line-height:125%;font-family:sans-serif;letter-spacing:0px;word-spacing:0px;fill:#000000;fill-opacity:1;stroke:none;stroke-width:0.26458332px;stroke-linecap:butt;stroke-linejoin:miter;stroke-opacity:1"
       x="97.28611"
       y="98.686012"
       id="text6626"><tspan
         sodipodi:role="line"
         id="tspan6624"
         x="97.28611"
         y="98.686012"
         style="stroke-width:0.26458332px">The &quot;Back End&quot;</tspan></text>
    <path
       style="fill:#fd0000;fill-opacity:1;stroke:none;stroke-width:3;stroke-miterlimit:4;stroke-dasharray:none;stroke-opacity:1"
       id="path6628"
       d="m 72.501288,204.18098 c 1.109837,-1.11317 2.274136,-2.16948 3.394538,-3.27151 1.015476,-1.04278 1.871149,-2.18067 3.075355,-3.01613 3.262773,-2.06093 6.551549,-4.13787 10.044928,-5.77722 1.139999,-0.38119 2.145752,-1.05437 3.223516,-1.57308 -12.111765,6.70643 -5.942409,4.18457 -4.228293,1.65155 0.499348,-1.03889 1.200621,-1.92162 1.970442,-2.76969 0.846469,-0.93487 1.472896,-2.03556 2.234531,-3.03801 0.943319,-1.21083 2.11814,-2.21637 3.327889,-3.15078 0.894395,-0.61334 1.771931,-1.24692 2.634965,-1.90291 2.810521,-2.54558 5.827261,-4.49638 9.521411,-4.74936 1.21961,-0.0571 2.44129,-0.0366 3.66186,-0.035 1.25415,-0.019 2.47313,0.34861 3.68529,0.62538 1.49798,0.38433 2.85381,1.05824 4.19176,1.8082 0.95763,0.54119 2.02124,0.69164 3.09936,0.7631 1.19652,0.0532 2.39474,0.037 3.59202,0.0292 1.1126,0.0798 2.18221,-0.2296 3.27549,-0.38198 0,0 -6.29892,4.7216 -6.29892,4.7216 v 0 c -1.10672,0.17867 -2.20797,0.35813 -3.33512,0.2832 -1.21701,-2.4e-4 -2.43619,0.008 -3.6505,-0.0848 -1.151,-0.14737 -2.25901,-0.43614 -3.25623,-1.05572 -1.27015,-0.735 -2.60358,-1.31639 -4.04824,-1.62186 -1.18671,-0.25526 -2.38484,-0.51858 -3.60671,-0.47295 -1.20971,-0.002 -2.42275,-0.01 -3.62781,0.11188 -0.4055,0.0567 -0.66906,0.0797 -1.06382,0.18935 -0.16277,0.0452 -0.624128,0.25154 -0.479372,0.16446 10.929262,-6.57512 7.917562,-4.71258 5.655292,-3.28023 -0.76849,0.80643 -1.76218,1.38556 -2.68617,1.99663 -1.20584,0.88996 -2.41312,1.80938 -3.387934,2.95735 -0.804309,0.98738 -1.46531,2.06005 -2.200312,3.09404 -0.759624,0.79649 -1.584907,1.58776 -2.00624,2.62484 -0.527986,0.90113 -0.998812,1.61921 -1.919404,2.16951 -2.391325,1.42947 -4.792398,2.84256 -7.188594,4.26384 -1.056484,0.56159 -2.121871,1.10123 -3.223633,1.56886 -2.408737,1.28489 -5.838536,3.31596 5.080728,-2.99313 1.721805,-0.99485 -3.411559,1.86642 -1.688989,1.01452 -0.567333,0.34721 -1.196343,0.65469 -1.666439,1.1369 -0.535003,0.5488 -0.892728,1.26858 -1.509289,1.746 -1.079222,1.09103 -2.237142,2.09438 -3.27932,3.22263 0,0 -7.318036,3.03123 -7.318036,3.03123 z"
       inkscape:connector-curvature="0" />
    <path
       style="fill:#fd0000;fill-opacity:1;stroke:none;stroke-width:3;stroke-miterlimit:4;stroke-dasharray:none;stroke-opacity:1"
       id="path6630"
       d="m 74.078528,221.30018 c 1.454224,-0.98091 2.828462,-2.06979 4.244467,-3.10396 3.025952,-2.23712 6.42398,-3.98761 9.679101,-5.82135 0.46432,-0.26156 0.972081,-0.43915 1.441669,-0.69115 -11.426057,7.21026 -5.587674,3.25375 -3.146724,1.23622 1.053563,-0.89951 1.956451,-1.9417 2.817755,-3.02066 0.866129,-1.18407 1.881227,-2.18542 3.083081,-3.0199 2.103691,-3.38416 6.945299,-3.52022 10.109613,-5.49477 1.025,-0.3443 2.0281,-0.76288 3.06982,-1.05627 1.05862,-0.47306 2.15585,-0.83607 3.28962,-1.0775 1.2641,-0.21424 2.55325,-0.22857 3.83244,-0.24836 1.16251,-0.0588 2.3279,0.11838 3.4359,0.4681 1.05859,0.33506 2.08603,0.75644 3.09959,1.20756 0.97042,0.46743 1.9628,0.73323 3.02785,0.879 1.13279,0.14388 2.11903,0.177 3.22738,-0.0884 0.46584,-0.28754 0.2285,-0.1536 0.71178,-0.40221 0,0 -6.1952,4.9152 -6.1952,4.9152 v 0 c -0.52204,0.20449 -0.24994,0.12344 -0.81768,0.23852 -1.1168,0.13795 -2.24578,0.006 -3.35523,-0.14948 -1.10443,-0.20844 -2.15456,-0.54646 -3.17041,-1.03172 -0.97297,-0.44616 -1.98149,-0.82512 -3.01264,-1.11274 -1.08722,-0.23769 -2.18025,-0.3748 -3.29598,-0.29435 -1.24989,0.0319 -2.51012,0.0741 -3.72802,0.38554 -1.12045,0.3115 -2.18935,0.75827 -3.28523,1.14297 -0.998466,0.35913 -2.03273,0.63905 -2.964479,1.15798 -2.792764,1.2769 -8.506828,4.01921 3.316327,-2.27142 -1.258202,0.71366 -2.324261,1.58719 -3.172481,2.77286 -0.877292,1.09764 -1.723512,2.21548 -2.779429,3.15472 -0.565891,0.52509 -1.197904,0.93747 -1.777977,1.44048 -2.87325,2.49154 -2.347256,2.11565 -8.418041,5.15676 -2.460218,1.20209 -6.031918,3.43299 4.531027,-2.72265 0.25668,-0.14958 -0.526759,0.27554 -0.782037,0.4275 -0.575586,0.34263 -1.023454,0.67152 -1.57171,1.0555 -0.265242,0.20501 -0.530482,0.41002 -0.795724,0.61503 -0.27174,0.17943 -0.553516,0.34452 -0.815221,0.53831 -0.829087,0.61389 -1.558866,1.36837 -2.462419,1.88334 0,0 -7.370788,2.93126 -7.370788,2.93126 z"
       inkscape:connector-curvature="0" />
    <path
       style="fill:#fd0000;fill-opacity:1;stroke:none;stroke-width:3;stroke-miterlimit:4;stroke-dasharray:none;stroke-opacity:1"
       id="path6632"
       d="m 72.474912,234.66366 c 1.252786,-0.87639 2.588826,-1.62485 3.875341,-2.44977 1.314572,-0.86968 2.620071,-1.73962 3.869936,-2.70058 3.169264,-2.24869 6.465401,-4.42465 10.115717,-5.81087 1.301988,-0.39569 2.654416,-0.54066 4.007011,-0.61747 1.266635,-0.0401 2.534849,-0.0355 3.802047,-0.0255 1.264745,0.0523 2.543676,-0.10485 3.795776,0.1 1.22836,0.14456 2.3838,0.57463 3.5513,0.95806 1.13508,0.40263 2.24366,0.7885 3.44373,0.95272 1.44375,0.14267 2.70491,1.06101 3.98183,1.70626 1.46134,0.68311 3.03848,0.92951 4.63003,1.05684 1.18118,-0.01 2.41884,0.22176 3.57766,-0.0593 0.72776,-0.2517 1.51456,-0.20999 2.22378,-0.49717 0,0 -6.26469,4.81522 -6.26469,4.81522 v 0 c -0.76093,0.12451 -1.5147,0.28482 -2.27677,0.40016 -1.2117,0.0388 -2.42662,-0.01 -3.63313,-0.12727 -1.64956,-0.20568 -3.26501,-0.56276 -4.76791,-1.30241 -1.25228,-0.61281 -2.46575,-1.39409 -3.89295,-1.48346 -1.2106,-0.22777 -2.34476,-0.66289 -3.508337,-1.05577 -1.133872,-0.37126 -2.284463,-0.69649 -3.476543,-0.81387 -1.240364,-0.0692 -2.484456,-0.025 -3.726243,-0.0433 -1.260674,0.006 -2.522858,-0.009 -3.781306,0.0807 -1.312786,0.11276 -2.625604,0.30292 -3.85621,0.79892 -2.834859,1.13085 -0.571365,0.26237 5.573141,-3.36383 0.172646,-0.10189 -0.361992,0.1735 -0.534686,0.27531 -0.597146,0.35201 -1.082172,0.85104 -1.701882,1.1682 -0.603726,0.42473 -1.156282,0.90585 -1.756942,1.33452 -1.567963,1.119 0.258326,-0.21027 -1.43303,0.89608 -0.248875,0.16279 -0.47933,0.35214 -0.718995,0.52821 -1.220576,0.82776 -2.492703,1.57516 -3.746889,2.34812 0,0 -7.370786,2.93125 -7.370786,2.93125 z"
       inkscape:connector-curvature="0" />
    <text
       xml:space="preserve"
       style="font-style:normal;font-weight:normal;font-size:10.58333302px;line-height:125%;font-family:sans-serif;letter-spacing:0px;word-spacing:0px;fill:#000000;fill-opacity:1;stroke:none;stroke-width:0.26458332px;stroke-linecap:butt;stroke-linejoin:miter;stroke-opacity:1"
       x="136.30745"
       y="183.14317"
       id="text6636"><tspan
         sodipodi:role="line"
         id="tspan6634"
         x="136.30745"
         y="183.14317"
         style="stroke-width:0.26458332px">HTML</tspan></text>
    <text
       xml:space="preserve"
       style="font-style:normal;font-weight:normal;font-size:10.58333302px;line-height:125%;font-family:sans-serif;letter-spacing:0px;word-spacing:0px;fill:#000000;fill-opacity:1;stroke:none;stroke-width:0.26458332px;stroke-linecap:butt;stroke-linejoin:miter;stroke-opacity:1"
       x="135.23839"
       y="205.05928"
       id="text6640"><tspan
         sodipodi:role="line"
         id="tspan6638"
         x="135.23839"
         y="205.05928"
         style="stroke-width:0.26458332px">CSS</tspan></text>
    <text
       xml:space="preserve"
       style="font-style:normal;font-weight:normal;font-size:10.58333302px;line-height:125%;font-family:sans-serif;letter-spacing:0px;word-spacing:0px;fill:#000000;fill-opacity:1;stroke:none;stroke-width:0.26458332px;stroke-linecap:butt;stroke-linejoin:miter;stroke-opacity:1"
       x="132.56569"
       y="230.18262"
       id="text6644"><tspan
         sodipodi:role="line"
         id="tspan6642"
         x="132.56569"
         y="230.18262"
         style="stroke-width:0.26458332px">JavaScript</tspan></text>
    <path
       style="fill:#fd00ff;fill-opacity:1;stroke:none;stroke-width:3;stroke-miterlimit:4;stroke-dasharray:none;stroke-opacity:1"
       id="path6646"
       d="m 47.939552,88.078764 c 1.073671,0.908248 2.310992,1.607624 3.470688,2.401197 1.05782,0.81552 2.092417,1.64959 3.092846,2.533806 1.169038,1.082852 2.223733,2.282245 3.370956,3.390466 0.890413,0.915244 1.760419,1.873774 2.310027,3.035456 0.495432,1.027741 0.141012,1.969751 -0.150331,2.986311 -0.291547,1.19829 -0.354748,2.43328 -0.393549,3.66088 0.06075,1.10479 -0.104966,2.17957 -0.296429,3.2612 -0.170212,1.09475 -0.462378,2.15877 -0.612701,3.25765 -0.171511,1.3883 -0.716907,2.67929 -1.188654,3.98283 -0.482047,1.08368 -0.743706,2.24254 -1.157467,3.3491 -0.400637,1.01842 -0.934588,1.975 -1.658988,2.79598 -0.862544,0.74133 -1.685851,1.52953 -2.547321,2.27285 -2.976136,2.43774 -6.354336,4.00128 -9.74775,5.933 -2.503648,0.92695 -6.463575,3.44452 5.379646,-3.20252 0.11588,-0.065 -0.220644,0.14993 -0.318201,0.24016 -0.211069,0.19522 -0.382683,0.42919 -0.574368,0.64347 -0.606012,0.65981 -1.382429,1.03562 -1.894242,1.78248 -0.617805,0.88347 -1.077447,1.85906 -1.467601,2.86044 -0.386435,0.87903 -0.727078,1.75166 -0.893347,2.69971 -0.141312,1.09798 -0.146627,2.20815 -0.151887,3.31347 0.0011,1.15906 0.0096,2.31809 0.01405,3.47714 -0.05884,1.07954 0.226391,2.10487 0.620652,3.09702 0.4724,1.10373 1.162989,2.03902 1.9261,2.94997 0.602861,0.8315 1.198282,1.66479 1.815243,2.48486 0.433522,0.77957 0.946055,1.50393 1.450054,2.24037 0.763453,1.08211 1.648635,2.04927 2.585479,2.97921 1.002454,0.95223 1.906024,1.99666 2.885411,2.97056 0.96923,0.94739 1.936859,1.89638 2.900336,2.84963 0.96302,0.94024 1.893454,1.91365 2.750548,2.95159 0.836454,0.91842 1.538761,1.93376 2.203063,2.97951 0.657252,1.0125 0.942769,2.15766 1.096365,3.33822 -0.0063,1.02059 0.339376,1.94449 0.671899,2.8877 0.331081,0.97976 0.408487,2.01183 0.45848,3.037 0.160796,0.90874 0.352941,1.807 0.453123,2.72593 0.08024,0.86889 0.0921,1.74192 0.102791,2.61381 0,0 -7.013911,3.58307 -7.013911,3.58307 v 0 c -0.0074,-0.84873 -0.0146,-1.69836 -0.07989,-2.54507 -0.08801,-0.93658 -0.26947,-1.85206 -0.46709,-2.77095 -0.0343,-0.9513 -0.07727,-1.91288 -0.361834,-2.82886 -0.337592,-0.99542 -0.747302,-1.97516 -0.737854,-3.04856 -0.104031,-1.07123 -0.309139,-2.11577 -0.90561,-3.03561 -0.651825,-1.01705 -1.336831,-2.00509 -2.163088,-2.89181 -0.837795,-1.01605 -1.709819,-2.00363 -2.674104,-2.90275 -0.973061,-0.95139 -1.956647,-1.89185 -2.929988,-2.84292 -0.963152,-0.9845 -1.846627,-2.0435 -2.855127,-2.98519 -0.962382,-0.96926 -1.899221,-1.96163 -2.712709,-3.06279 -0.516988,-0.72242 -1.031888,-1.43943 -1.453089,-2.22158 -0.582925,-0.82466 -1.179438,-1.63512 -1.761548,-2.46116 -0.797687,-0.98107 -1.517309,-1.99681 -2.044777,-3.15436 -0.449842,-1.06563 -0.809376,-2.19251 -0.770408,-3.36272 2.51e-4,-1.16285 7.94e-4,-2.3257 0.0011,-3.48855 7.2e-5,-1.13214 -0.028,-2.26677 0.0714,-3.39599 0.113164,-0.9992 0.314695,-1.974 0.842613,-2.84733 0.333478,-1.04735 0.776443,-2.08171 1.372383,-3.0061 0.552148,-0.97656 0.814745,-1.36677 1.835912,-1.90856 0.05523,-0.061 0.515993,-0.56611 0.571659,-0.64078 0.09576,-0.12846 0.123692,-0.31994 0.259863,-0.40437 3.059258,-1.89686 5.20346,-3.33498 8.100277,-4.611 -11.82156,6.85427 -6.078358,3.84473 -3.67927,1.87692 0.953392,-0.60218 1.602013,-1.55127 2.564157,-2.14624 0.776094,-0.7135 1.395889,-1.54577 1.789499,-2.53298 0.51222,-1.06511 0.656394,-2.24931 1.191686,-3.30981 0.43231,-1.27178 1.054711,-2.48839 1.25676,-3.82871 0.122248,-1.10769 0.341865,-2.18581 0.564681,-3.2716 0.167326,-1.0631 0.480849,-2.09619 0.386848,-3.18589 0.03255,-1.2686 0.05739,-2.54249 0.295762,-3.79337 0.165708,-0.84915 0.704977,-1.65683 0.379954,-2.50876 -0.496392,-1.07782 -1.248616,-1.99914 -2.080498,-2.83937 -1.137478,-1.103622 -2.193779,-2.292344 -3.393866,-3.329122 -0.985752,-0.850932 -1.987544,-1.681506 -3.028415,-2.4653 -1.145993,-0.78399 -2.312927,-1.54472 -3.510463,-2.247281 0,0 6.634102,-4.365003 6.634102,-4.365003 z"
       inkscape:connector-curvature="0" />
    <text
       xml:space="preserve"
       style="font-style:normal;font-weight:normal;font-size:10.58333302px;line-height:125%;font-family:sans-serif;letter-spacing:0px;word-spacing:0px;fill:#000000;fill-opacity:1;stroke:none;stroke-width:0.26458332px;stroke-linecap:butt;stroke-linejoin:miter;stroke-opacity:1"
       x="71.628235"
       y="138.2419"
       id="text6650"><tspan
         sodipodi:role="line"
         id="tspan6648"
         x="71.628235"
         y="138.2419"
         style="stroke-width:0.26458332px">Internet connection,</tspan><tspan
         sodipodi:role="line"
         x="71.628235"
         y="151.47107"
         style="stroke-width:0.26458332px"
         id="tspan6652">wired or WiFi</tspan></text>
    <path
       style="fill:none;fill-rule:evenodd;stroke:#000000;stroke-width:0.26458332px;stroke-linecap:butt;stroke-linejoin:miter;stroke-opacity:1"
       d="m 47.914777,155.61799 c -0.947697,-2.27239 -1.895398,-4.54477 -2.843096,-6.81716 0,-0.17818 -0.125992,-0.40855 0,-0.53454 1.177608,-1.1776 2.255306,-1.72076 3.207234,-2.67269 0.35636,-0.35636 0.178181,-1.24726 0.534541,-1.60362 0.44545,-0.44545 1.692706,-0.0891 2.138156,-0.53454 0.951722,-0.95172 1.394865,-1.9294 2.138156,-2.67269 0.712719,-0.71272 3.029053,0.17818 3.741772,-0.53454 0.125992,-0.12599 -0.125992,-0.40855 0,-0.53454 0.247099,-0.2471 1.280877,0.16137 1.603618,0 0.884412,-0.44221 1.911316,-0.68839 2.672694,-1.06908 1.11615,-0.55808 1.022009,-1.04554 2.138159,-1.60362 1.127334,-0.56366 4.488558,0.85683 5.34539,0 0.527029,-0.52703 0.445415,-0.53454 1.603616,-0.53454"
       id="path6654"
       inkscape:connector-curvature="0" />
    <text
       xml:space="preserve"
       style="font-style:normal;font-weight:normal;font-size:10.58333302px;line-height:125%;font-family:sans-serif;letter-spacing:0px;word-spacing:0px;fill:#000000;fill-opacity:1;stroke:none;stroke-width:0.26458332px;stroke-linecap:butt;stroke-linejoin:miter;stroke-opacity:1"
       x="96.751572"
       y="249.42603"
       id="text6658"><tspan
         sodipodi:role="line"
         id="tspan6656"
         x="96.751572"
         y="249.42603"
         style="stroke-width:0.26458332px">The &quot;Front End&quot;</tspan></text>
    <path
       style="fill:none;fill-rule:evenodd;stroke:#000000;stroke-width:0.26458332px;stroke-linecap:butt;stroke-linejoin:miter;stroke-opacity:1"
       d="m 43.832203,29.730469 c 1.959975,-0.534537 3.934047,-1.019849 5.879928,-1.603615 0.170666,-0.0512 -0.35636,0 -0.534538,0 -1.16962,0 -1.470009,-0.534538 -2.672697,-0.534538 -0.346643,0 -2.885601,-0.53454 -4.810849,-0.53454 -1.966987,0 -10.769584,0.0788 -11.225321,0.53454 -0.703279,0.703278 -0.838933,0.304395 -1.069078,0.534538 -1.10598,1.105982 1.690084,-0.04323 -0.534541,1.06908 -0.737319,0.36866 -0.478128,-0.647358 -1.069078,0.534538 -0.07968,0.159369 0.159369,0.454856 0,0.53454 -0.318735,0.159367 -0.75034,-0.159369 -1.069078,0 -0.159366,0.07968 0.07969,0.375169 0,0.534538 -0.567533,1.135071 -1.986986,0.766741 -2.672694,2.138156 -1.039725,2.079451 0.257627,15.244006 -0.534539,16.036171 -0.253846,0.253847 -3.148975,3.090717 -3.207234,3.207234 -0.159369,0.318738 0.251984,0.817094 0,1.069078 -0.517276,0.517276 -0.848458,0.156962 -1.603617,0.534541 -0.230478,0.115239 -1.716384,1.716383 -2.138156,2.138156 -0.0095,0.0095 -0.749919,3.103454 -1.069078,3.741774 -0.617879,1.235755 0.04261,4.361537 0.534539,5.34539 0.577771,1.155542 0,7.497244 0,9.087162 0,0.3262 0.208276,1.929879 0,2.138157 -0.0091,0.0091 -2.635017,2.597337 -2.672696,2.672696 -0.159368,0.318738 0.251984,0.817094 0,1.069078 -0.304919,0.304919 -3.207234,1.942031 -3.207234,2.138156 0,0.208751 1.001605,0.602012 0.534539,1.069078 -0.490758,0.490757 -1.843955,2.19202 -1.069078,3.741772 0.2640332,0.528069 3.15734,5.830035 3.207234,5.879931 0.445449,0.445449 1.158168,0.623628 1.603617,1.069078 0.251984,0.251984 -0.251984,0.817094 0,1.069078 0.748888,0.748887 2.587493,1.433213 3.207235,2.672696 0.366088,0.732176 -0.288132,1.1108 -0.534539,1.603616 -0.467016,0.934032 0,3.169132 0,4.276312 0,4.81404 0.345474,7.82902 2.672695,10.15624 0.247098,0.2471 1.280876,-0.16137 1.603617,0 1.178717,0.58936 2.050187,1.55963 3.207234,2.13816 0.855263,0.42763 2.351973,-0.42763 3.207233,0 1.368211,0.6841 17.797412,1.25753 19.243408,0.53454 0.840856,-0.42043 0.606039,-0.53454 1.603616,-0.53454 0.356359,0 0.817094,0.25198 1.069078,0 0.510571,-0.51057 1.527526,-1.52753 2.138156,-2.13816 0.793689,-0.79368 2.948088,-0.80993 3.741774,-1.60362 0.646925,-0.64692 1.523773,-2.09823 2.672694,-2.67269 0.644284,-0.32214 1.664131,-0.0605 2.138159,-0.53454 0.297246,-0.29725 0.862824,-1.23322 1.603615,-1.60362 1.543016,-0.7715 3.855257,0.21053 5.345391,-0.53454 0.854601,-0.4273 2.651178,-1.07983 3.741774,-0.53453 7.763679,3.88184 25.366072,2.13815 34.745036,2.13815 2.70679,0 7.0391,-0.86086 9.6217,0 2.86376,0.95459 6.2984,-0.39505 9.08717,0.53454 5.58293,1.86098 16.53486,1.06908 22.98518,1.06908 0.50691,0 2.88443,0.3228 3.20723,0 0.54091,-0.54091 1.01637,-0.53454 2.13816,-0.53454 1.76955,0 8.03166,0.007 9.08716,0.53454 2.44638,1.22319 -2.26827,-0.22155 1.60362,1.06908 2.63285,0.87761 9.3973,0 12.2944,0 0.41855,0 2.40597,0.26672 2.67269,0 1.19843,-1.19843 4.11112,-1.78829 5.87993,-2.6727 1.12816,-0.56408 1.56457,-1.52551 2.13816,-2.67269 0.45213,-0.90427 1.65349,-1.11896 2.13815,-1.60362 0.15693,-0.15693 0.81511,-2.29173 1.06908,-2.6727 0.88642,-1.32963 0.12283,-0.0614 1.06908,-0.53453 0.38353,-0.19177 2.35849,-2.578823 2.67269,-3.207238 0.73043,-1.460841 -0.51965,-8.522856 -1.06907,-9.621705 -1.20655,-2.4131 0.86061,-6.505318 0,-9.087162 -0.33242,-0.997233 -0.66579,-1.331582 -1.06908,-2.138156 -0.32904,-0.658074 1.06908,-4.9686 1.06908,-5.879931 0,-0.220104 -0.1415,-1.462122 0,-1.603615 0.71272,-0.712719 0.8909,-1.959978 1.60362,-2.672697 0.35635,-0.356359 -0.35636,-1.781797 0,-2.138156 2.08432,-2.084321 3.8726,-3.872606 5.87992,-5.879928 0.39832,-0.39832 1.547,-3.685159 1.60362,-3.741774 0.44718,-0.447181 1.63283,-1.098286 2.13816,-1.603619 0.45977,-0.459772 0.93072,-1.999795 1.60361,-2.672694 0.26727,-0.267268 -0.26727,-1.336347 0,-1.603618 0.126,-0.125992 0.40855,0.125992 0.53454,0 0.26727,-0.267269 -0.26727,-1.336347 0,-1.603616 1.65137,-1.65137 3.20724,-3.565998 3.20724,-6.414468 0,-1.044382 0.11634,-10.574441 0,-10.690781 -0.33673,-0.336732 -2.09392,-1.848768 -2.6727,-2.138158 -1.35887,-0.679437 -21.69579,-1.142513 -23.51972,-0.534538 -1.37531,0.458438 -2.43821,1.486374 -3.74177,2.138156 -0.71272,0.356359 -1.95998,-0.356359 -2.67269,0 -1.47122,0.735611 -2.87325,0.735095 -3.74178,1.603618 -0.44545,0.445448 -2.22724,-0.445449 -2.67269,0 -0.12599,0.125992 0.12599,0.408546 0,0.534538 -0.0851,0.08515 -7.23733,0 -8.01809,0 -1.111,0 -0.57122,0.03668 -1.06908,0.534541 -0.16681,0.166817 -17.7003,-0.297532 -18.17432,-0.534541 -1.65906,-0.829524 -2.61726,-0.774091 -4.27632,-1.603616 -2.01784,-1.008922 -6.12291,0.680313 -8.55262,-0.53454 -1.48477,-0.742384 -8.5994,0 -10.69078,0 -0.3262,0 -1.92988,-0.208277 -2.13816,0 -0.12599,0.125992 0.12599,0.408546 0,0.53454 -0.33906,0.339064 -1.6931,-0.222527 -2.13816,0 -1.32106,0.66053 0.18452,0.534538 -1.06907,0.534538 -1.3181,0 -2.68296,1.079339 -3.20724,1.603619 -0.8018,0.801806 -4.00904,-0.80181 -4.81085,0 -0.12599,0.125991 0.12599,0.408545 0,0.534537 -0.48729,0.487289 -4.04522,0 -4.81085,0 -1.9528,0 -1.987497,-0.534537 -3.741772,-0.534537 -6.855944,0 -12.611344,0.534537 -19.777945,0.534537 -1.107377,0 -6.244294,0.704715 -6.949009,0 -0.527032,-0.527031 -0.445418,-0.534537 -1.603616,-0.534537 -0.825616,0 -1.668674,1.03655 -2.672696,0.534537 -1.544773,-0.772387 -2.297361,-1.228283 -3.207234,-2.138156 -0.267269,-0.267269 -1.336347,0.267269 -1.603616,0 -0.125995,-0.125992 0.125992,-0.408546 0,-0.534538 -0.65042,-0.650419 -5.392428,0 -6.414471,0 -1.00307,0 -4.473422,-0.197112 -4.81085,-0.53454 -0.251984,-0.251984 0.355129,-1.098672 0,-1.069078 -2.160162,0.180012 -4.276312,0.712716 -6.414468,1.069075"
       id="path6660"
       inkscape:connector-curvature="0" />
    <text
       xml:space="preserve"
       style="font-style:normal;font-weight:normal;font-size:10.58333302px;line-height:125%;font-family:sans-serif;letter-spacing:0px;word-spacing:0px;fill:#000000;fill-opacity:1;stroke:none;stroke-width:0.26458332px;stroke-linecap:butt;stroke-linejoin:miter;stroke-opacity:1"
       x="3.7417729"
       y="104.56594"
       id="text6664"><tspan
         sodipodi:role="line"
         id="tspan6662"
         x="3.7417729"
         y="104.56594"
         style="stroke-width:0.26458332px">This is</tspan><tspan
         sodipodi:role="line"
         x="3.7417729"
         y="117.79511"
         style="stroke-width:0.26458332px"
         id="tspan6666">called</tspan><tspan
         sodipodi:role="line"
         x="3.7417729"
         y="131.02428"
         style="stroke-width:0.26458332px"
         id="tspan6668">&quot;The Cloud&quot;</tspan></text>
  </g>
</svg>
